<?xml version="1.0" encoding="utf-8"?>
<!-- Generator: Adobe Illustrator 18.1.0, SVG Export Plug-In . SVG Version: 6.00 Build 0)  -->
<!DOCTYPE svg PUBLIC "-//W3C//DTD SVG 1.1//EN" "http://www.w3.org/Graphics/SVG/1.1/DTD/svg11.dtd">
<svg version="1.1" id="Layer_1" xmlns="http://www.w3.org/2000/svg" xmlns:xlink="http://www.w3.org/1999/xlink" x="0px" y="0px"
	 width="90px" height="190.8px" viewBox="0 0 90 190.8" enable-background="new 0 0 90 190.8" xml:space="preserve">
<g>
	<path fill="#FFD607" d="M82,106.9l-0.5-0.5c0.1,0.2,0.1,0.5,0.2,0.7L82,106.9z"/>
	<path fill="#FFD607" d="M5.6,147.6c0.6,4.6,1.6,8.6,2.9,12.2l4.6-4.6L5.6,147.6z"/>
	
		<rect x="8.7" y="139" transform="matrix(0.7071 0.7071 -0.7071 0.7071 106.7659 31.9633)" fill="#FFD607" width="12.1" height="11.8"/>
	<path fill="#FFD607" d="M41.9,67.9h-5.5c-2,0-4.4,1-6.8,2.8l4.7,4.7L41.9,67.9z"/>
	<path fill="#FFD607" d="M81.7,107.2c-0.1-0.3-0.1-0.5-0.2-0.7l-8.1-8.1l-8.1,8.1l8.6,8.6L81.7,107.2z"/>
	
		<rect x="27.9" y="119.7" transform="matrix(0.7071 0.7071 -0.7071 0.7071 98.8491 12.8506)" fill="#FFD607" width="12.1" height="12.1"/>
	
		<rect x="38.2" y="109.4" transform="matrix(0.7071 0.7071 -0.7071 0.7071 94.5676 2.5141)" fill="#FFD607" width="12.1" height="12.1"/>
	
		<rect x="18.2" y="130.3" transform="matrix(0.7071 0.7071 -0.7071 0.7071 102.8291 22.4592)" fill="#FFD607" width="12.1" height="10.1"/>
	<path fill="#FFD607" d="M32.6,77.2l-4.9-4.9c-2.2,2-4.4,4.6-6.6,7.8l4.3,4.3L32.6,77.2z"/>
	
		<rect x="28.6" y="140.7" transform="matrix(0.7071 0.7071 -0.7071 0.7071 113.1657 18.1776)" fill="#FFD607" width="12.1" height="10.1"/>
	
		<rect x="38.2" y="130" transform="matrix(0.7071 0.7071 -0.7071 0.7071 109.1857 8.5691)" fill="#FFD607" width="12.1" height="12.1"/>
	
		<rect x="19.1" y="149.3" transform="matrix(0.7071 0.7071 -0.7071 0.7071 117.1025 27.6818)" fill="#FFD607" width="12.1" height="11.8"/>
	
		<rect x="48.5" y="119.7" transform="matrix(0.7071 0.7071 -0.7071 0.7071 104.9042 -1.7675)" fill="#FFD607" width="12.1" height="12.1"/>
	<path fill="#FFD607" d="M59.9,69.7c-1.9-1.2-3.7-1.8-5.3-1.8h-8l7.6,7.6L59.9,69.7z"/>
	
		<rect x="58.2" y="111" transform="matrix(0.7071 0.7071 -0.7071 0.7071 100.9038 -11.4254)" fill="#FFD607" width="12.1" height="10.2"/>
	<path fill="#FFD607" d="M63.1,84.4l5.8-5.8c-2.3-3.2-4.6-5.7-6.9-7.5l-6.1,6.1L63.1,84.4z"/>
	<path fill="#FFD607" d="M73.4,94.8l2.9-2.9c-1.9-4.2-3.9-7.9-6-11.1l-5.4,5.4L73.4,94.8z"/>
	
		<rect x="9.5" y="120.7" transform="matrix(0.7071 0.7071 -0.7071 0.7071 93.1712 26.4596)" fill="#FFD607" width="10.2" height="10.1"/>
	<path fill="#FFD607" d="M14.6,115l8.6-8.6l-8.1-8.1l-4.5,4.5c-0.6,2-1.2,4.1-1.8,6.3L14.6,115z"/>
	
		<rect x="19.2" y="110" transform="matrix(0.7071 0.7071 -0.7071 0.7071 89.1912 16.8511)" fill="#FFD607" width="10.2" height="12.1"/>
	
		<rect x="29.5" y="99.7" transform="matrix(0.7071 0.7071 -0.7071 0.7071 84.9097 6.5145)" fill="#FFD607" width="10.2" height="12.1"/>
	
		<rect x="39.2" y="91" transform="matrix(0.7071 0.7071 -0.7071 0.7071 80.9092 -3.1434)" fill="#FFD607" width="10.2" height="10.2"/>
	<path fill="#FFD607" d="M65,165.4l8.5,8.5c2.6-2.7,5.1-6,7.1-10l-7.1-7.1L65,165.4z"/>
	
		<rect x="57.3" y="90.6" transform="matrix(0.7071 0.7071 -0.7071 0.7071 86.6617 -16.5725)" fill="#FFD607" width="12.1" height="11.5"/>
	
		<rect x="38.5" y="71.5" transform="matrix(0.7071 0.7071 -0.7071 0.7071 67.5751 -8.6666)" fill="#FFD607" width="11.5" height="11.5"/>
	
		<rect x="47.9" y="100.7" transform="matrix(0.7071 0.7071 -0.7071 0.7071 90.5672 -7.1438)" fill="#FFD607" width="12.1" height="10.2"/>
	<path fill="#FFD607" d="M23.6,86.2l-3.9-3.9c-2,3.3-4,7.1-5.8,11.3l1.1,1.1L23.6,86.2z"/>
	<path fill="#FFD607" d="M5.2,142.4l7.8-7.8l-7.2-7.2l-0.1,0.1c-0.4,3.8-0.5,7.8-0.5,11.8C5.1,140.4,5.1,141.4,5.2,142.4z"/>
	
		<rect x="29.1" y="81.6" transform="matrix(0.7071 0.7071 -0.7071 0.7071 71.4806 0.7621)" fill="#FFD607" width="11.5" height="10.2"/>
	<path fill="#FFD607" d="M6.1,123.5l6.7-6.7L8.1,112C7.3,115.7,6.6,119.5,6.1,123.5z"/>
	<path fill="#FFD607" d="M34.1,176.1l-5.9,5.9c6.4,3.3,11.6,4.1,11.6,4.1h1l1.7-1.7L34.1,176.1z"/>
	
		<rect x="19.4" y="90.3" transform="matrix(0.7071 0.7071 -0.7071 0.7071 75.481 10.42)" fill="#FFD607" width="11.5" height="12.1"/>
	
		<rect x="39.2" y="150.3" transform="matrix(0.7071 0.7071 -0.7071 0.7071 122.7743 14.1976)" fill="#FFD607" width="10.1" height="10.1"/>
	<polygon fill="#FFD607" points="85.7,144.8 85.7,144.8 85.7,144.8 	"/>
	<path fill="#FFD607" d="M46,184.4l1.7,1.7h3.6c0,0,4.3-0.6,9.9-3.3l-6.8-6.8L46,184.4z"/>
	<path fill="#FFD607" d="M25.2,167.2l-7.3,7.3c2.6,2.6,5.3,4.6,8,6.2l6.4-6.4L25.2,167.2z"/>
	
		<rect x="29.7" y="158.9" transform="matrix(0.7071 0.7071 -0.7071 0.7071 126.711 23.7018)" fill="#FFD607" width="10.1" height="11.8"/>
	
		<rect x="57.5" y="149.1" transform="matrix(0.7071 0.7071 -0.7071 0.7071 128.2984 0.6524)" fill="#FFD607" width="11.8" height="12.1"/>
	
		<rect x="47.8" y="159.8" transform="matrix(0.7071 0.7071 -0.7071 0.7071 132.2784 10.2609)" fill="#FFD607" width="11.8" height="10.1"/>
	
		<rect x="67.8" y="138.8" transform="matrix(0.7071 0.7071 -0.7071 0.7071 124.0168 -9.6842)" fill="#FFD607" width="11.8" height="12.1"/>
	<path fill="#FFD607" d="M75.4,155.1l6.4,6.4c1.7-3.9,2.9-8.4,3.6-13.5l-1.4-1.4L75.4,155.1z"/>
	
		<rect x="38.3" y="168.4" transform="matrix(0.7071 0.7071 -0.7071 0.7071 136.2151 19.7651)" fill="#FFD607" width="11.8" height="11.8"/>
	
		<rect x="48.6" y="80.9" transform="matrix(0.7071 0.7071 -0.7071 0.7071 77.0038 -12.5721)" fill="#FFD607" width="10.2" height="11.5"/>
	
		<rect x="68.8" y="120.6" transform="matrix(0.7071 0.7071 -0.7071 0.7071 110.5123 -15.4054)" fill="#FFD607" width="10.1" height="10.2"/>
	<path fill="#FFD607" d="M80,101.3c-0.8-2.4-1.7-4.8-2.6-7l-2.2,2.2L80,101.3z"/>
	
		<rect x="59.2" y="129.3" transform="matrix(0.7071 0.7071 -0.7071 0.7071 114.5128 -5.7475)" fill="#FFD607" width="10.1" height="12.1"/>
	<path fill="#FFD607" d="M14.9,156.9l-5.4,5.4c1.9,4.1,4.2,7.6,6.7,10.4l7.2-7.2L14.9,156.9z"/>
	
		<rect x="48.8" y="139.6" transform="matrix(0.7071 0.7071 -0.7071 0.7071 118.7943 4.5891)" fill="#FFD607" width="10.1" height="12.1"/>
	<path fill="#FFD607" d="M56.1,174.3l7.3,7.3c2.7-1.5,5.5-3.4,8.3-5.9l-8.5-8.5L56.1,174.3z"/>
	<path fill="#FFD607" d="M83.9,143l1.8,1.8l0.2-3.7c0-0.6,0-1.1,0-1.7c0-3.1-0.1-6.1-0.3-9.1l-2.8-2.8l-7.2,7.2L83.9,143z"/>
	<path fill="#FFD607" d="M82.8,123.9l2.6,2.2l-0.7-4.2c-0.6-4.2-1.3-8.2-2.3-12l-6.8,6.8L82.8,123.9z"/>
	<path fill="#FFD607" d="M15.1,94.8"/>
</g>
<g>
	<path fill="#006A0C" d="M43.4,65.8c0,0-19.6-2.2-22.4,4c0,0-0.4-8.9,10.8-10.4C31.8,59.4,43.3,58.5,43.4,65.8z"/>
	<path fill="#006A0C" d="M43.4,61.4c0,0-25.7-15.6-29.6,0c0,0-5.8-12,10.7-18C24.5,43.5,46.3,39,43.4,61.4z"/>
	<path fill="#006A0C" d="M43.1,47.5c0,0-23.9-19.9-28.1-17S39.6,6.7,43.1,42V47.5z"/>
	<path fill="#006A0C" d="M45.3,65.8c0,0,19.6-2.2,22.4,4c0,0,0.4-8.9-10.8-10.4C57,59.4,45.5,58.5,45.3,65.8z"/>
	<path fill="#006A0C" d="M45.3,61.4c0,0,25.7-15.6,29.6,0c0,0,5.8-12-10.7-18C64.2,43.5,42.4,39,45.3,61.4z"/>
	<path fill="#006A0C" d="M45.7,47.5c0,0,23.9-19.9,28.1-17S49.2,6.7,45.7,42V47.5z"/>
	<path fill="#006A0C" d="M51.5,11.7c0,0-1.7-9.4-7.2-10.4c-5.5,1-7.2,10.4-7.2,10.4c-2.1,7.9,6.6,21.6,6.6,21.6l0.6,1.3l0.6-1.3
		C44.8,33.3,53.6,19.6,51.5,11.7z"/>
</g>
<g>
	<path fill="#FFD607" d="M-27.9,94l-0.5-0.5c0.1,0.2,0.1,0.5,0.2,0.7L-27.9,94z"/>
	<path fill="#FFD607" d="M-104.3,134.6c0.6,4.6,1.6,8.6,2.9,12.2l4.6-4.6L-104.3,134.6z"/>
	
		<rect x="-101.1" y="126" transform="matrix(0.7071 0.7071 -0.7071 0.7071 65.4591 105.8703)" fill="#FFD607" width="12.1" height="11.8"/>
	<path fill="#FFD607" d="M-67.9,55h-5.5c-2,0-4.4,1-6.8,2.8l4.7,4.7L-67.9,55z"/>
	<path fill="#FFD607" d="M-28.1,94.2c-0.1-0.3-0.1-0.5-0.2-0.7l-8.1-8.1l-8.1,8.1l8.6,8.6L-28.1,94.2z"/>
	
		<rect x="-82" y="106.8" transform="matrix(0.7071 0.7071 -0.7071 0.7071 57.5424 86.7576)" fill="#FFD607" width="12.1" height="12.1"/>
	
		<rect x="-71.7" y="96.4" transform="matrix(0.7071 0.7071 -0.7071 0.7071 53.2608 76.421)" fill="#FFD607" width="12.1" height="12.1"/>
	
		<rect x="-91.6" y="117.4" transform="matrix(0.7071 0.7071 -0.7071 0.7071 61.5224 96.3661)" fill="#FFD607" width="12.1" height="10.1"/>
	<path fill="#FFD607" d="M-77.3,64.3l-4.9-4.9c-2.2,2-4.4,4.6-6.6,7.8l4.3,4.3L-77.3,64.3z"/>
	
		<rect x="-81.3" y="127.8" transform="matrix(0.7071 0.7071 -0.7071 0.7071 71.8589 92.0846)" fill="#FFD607" width="12.1" height="10.1"/>
	
		<rect x="-71.7" y="117.1" transform="matrix(0.7071 0.7071 -0.7071 0.7071 67.879 82.476)" fill="#FFD607" width="12.1" height="12.1"/>
	
		<rect x="-90.8" y="136.4" transform="matrix(0.7071 0.7071 -0.7071 0.7071 75.7957 101.5887)" fill="#FFD607" width="12.1" height="11.8"/>
	
		<rect x="-61.3" y="106.8" transform="matrix(0.7071 0.7071 -0.7071 0.7071 63.5974 72.1395)" fill="#FFD607" width="12.1" height="12.1"/>
	<path fill="#FFD607" d="M-50,56.8c-1.9-1.2-3.7-1.8-5.3-1.8h-8l7.6,7.6L-50,56.8z"/>
	
		<rect x="-51.7" y="98.1" transform="matrix(0.7071 0.7071 -0.7071 0.7071 59.597 62.4816)" fill="#FFD607" width="12.1" height="10.2"/>
	<path fill="#FFD607" d="M-46.8,71.5l5.8-5.8c-2.3-3.2-4.6-5.7-6.9-7.5l-6.1,6.1L-46.8,71.5z"/>
	<path fill="#FFD607" d="M-36.4,81.9l2.9-2.9c-1.9-4.2-3.9-7.9-6-11.1l-5.4,5.4L-36.4,81.9z"/>
	
		<rect x="-100.3" y="107.8" transform="matrix(0.7071 0.7071 -0.7071 0.7071 51.8645 100.3666)" fill="#FFD607" width="10.2" height="10.1"/>
	<path fill="#FFD607" d="M-95.3,102.1l8.6-8.6l-8.1-8.1l-4.5,4.5c-0.6,2-1.2,4.1-1.8,6.3L-95.3,102.1z"/>
	
		<rect x="-90.7" y="97.1" transform="matrix(0.7071 0.7071 -0.7071 0.7071 47.8845 90.758)" fill="#FFD607" width="10.2" height="12.1"/>
	
		<rect x="-80.4" y="86.8" transform="matrix(0.7071 0.7071 -0.7071 0.7071 43.6029 80.4215)" fill="#FFD607" width="10.2" height="12.1"/>
	
		<rect x="-70.7" y="78.1" transform="matrix(0.7071 0.7071 -0.7071 0.7071 39.6025 70.7636)" fill="#FFD607" width="10.2" height="10.2"/>
	<path fill="#FFD607" d="M-44.8,152.5l8.5,8.5c2.6-2.7,5.1-6,7.1-10l-7.1-7.1L-44.8,152.5z"/>
	
		<rect x="-52.6" y="77.7" transform="matrix(0.7071 0.7071 -0.7071 0.7071 45.3549 57.3344)" fill="#FFD607" width="12.1" height="11.5"/>
	
		<rect x="-71.3" y="58.6" transform="matrix(0.7071 0.7071 -0.7071 0.7071 26.2684 65.2403)" fill="#FFD607" width="11.5" height="11.5"/>
	
		<rect x="-62" y="87.7" transform="matrix(0.7071 0.7071 -0.7071 0.7071 49.2604 66.7631)" fill="#FFD607" width="12.1" height="10.2"/>
	<path fill="#FFD607" d="M-86.2,73.3l-3.9-3.9c-2,3.3-4,7.1-5.8,11.3l1.1,1.1L-86.2,73.3z"/>
	<path fill="#FFD607" d="M-104.7,129.5l7.8-7.8l-7.2-7.2l-0.1,0.1c-0.4,3.8-0.5,7.8-0.5,11.8C-104.8,127.5-104.7,128.5-104.7,129.5z
		"/>
	
		<rect x="-80.8" y="68.7" transform="matrix(0.7071 0.7071 -0.7071 0.7071 30.1739 74.669)" fill="#FFD607" width="11.5" height="10.2"/>
	<path fill="#FFD607" d="M-103.8,110.6l6.7-6.7l-4.7-4.7C-102.6,102.8-103.3,106.6-103.8,110.6z"/>
	<path fill="#FFD607" d="M-75.7,163.2l-5.9,5.9c6.4,3.3,11.6,4.1,11.6,4.1h1l1.7-1.7L-75.7,163.2z"/>
	
		<rect x="-90.4" y="77.4" transform="matrix(0.7071 0.7071 -0.7071 0.7071 34.1743 84.3269)" fill="#FFD607" width="11.5" height="12.1"/>
	
		<rect x="-70.6" y="137.4" transform="matrix(0.7071 0.7071 -0.7071 0.7071 81.4675 88.1046)" fill="#FFD607" width="10.1" height="10.1"/>
	<polygon fill="#FFD607" points="-24.2,131.9 -24.2,131.8 -24.2,131.8 	"/>
	<path fill="#FFD607" d="M-63.8,171.5l1.7,1.7h3.6c0,0,4.3-0.6,9.9-3.3l-6.8-6.8L-63.8,171.5z"/>
	<path fill="#FFD607" d="M-84.6,154.3l-7.3,7.3c2.6,2.6,5.3,4.6,8,6.2l6.4-6.4L-84.6,154.3z"/>
	
		<rect x="-80.1" y="146" transform="matrix(0.7071 0.7071 -0.7071 0.7071 85.4043 97.6087)" fill="#FFD607" width="10.1" height="11.8"/>
	
		<rect x="-52.4" y="136.2" transform="matrix(0.7071 0.7071 -0.7071 0.7071 86.9916 74.5593)" fill="#FFD607" width="11.8" height="12.1"/>
	
		<rect x="-62" y="146.9" transform="matrix(0.7071 0.7071 -0.7071 0.7071 90.9716 84.1679)" fill="#FFD607" width="11.8" height="10.1"/>
	
		<rect x="-42.1" y="125.9" transform="matrix(0.7071 0.7071 -0.7071 0.7071 82.7101 64.2228)" fill="#FFD607" width="11.8" height="12.1"/>
	<path fill="#FFD607" d="M-34.5,142.2l6.4,6.4c1.7-3.9,2.9-8.4,3.6-13.5l-1.4-1.4L-34.5,142.2z"/>
	
		<rect x="-71.5" y="155.5" transform="matrix(0.7071 0.7071 -0.7071 0.7071 94.9084 93.672)" fill="#FFD607" width="11.8" height="11.8"/>
	
		<rect x="-61.3" y="68" transform="matrix(0.7071 0.7071 -0.7071 0.7071 35.697 61.3349)" fill="#FFD607" width="10.2" height="11.5"/>
	
		<rect x="-41" y="107.7" transform="matrix(0.7071 0.7071 -0.7071 0.7071 69.2056 58.5016)" fill="#FFD607" width="10.1" height="10.2"/>
	<path fill="#FFD607" d="M-29.9,88.4c-0.8-2.4-1.7-4.8-2.6-7l-2.2,2.2L-29.9,88.4z"/>
	
		<rect x="-50.7" y="116.4" transform="matrix(0.7071 0.7071 -0.7071 0.7071 73.206 68.1595)" fill="#FFD607" width="10.1" height="12.1"/>
	<path fill="#FFD607" d="M-95,144l-5.4,5.4c1.9,4.1,4.2,7.6,6.7,10.4l7.2-7.2L-95,144z"/>
	
		<rect x="-61" y="126.7" transform="matrix(0.7071 0.7071 -0.7071 0.7071 77.4875 78.496)" fill="#FFD607" width="10.1" height="12.1"/>
	<path fill="#FFD607" d="M-53.7,161.4l7.3,7.3c2.7-1.5,5.5-3.4,8.3-5.9l-8.5-8.5L-53.7,161.4z"/>
	<path fill="#FFD607" d="M-25.9,130.1l1.8,1.8l0.2-3.7c0-0.6,0-1.1,0-1.7c0-3.1-0.1-6.1-0.3-9.1l-2.8-2.8l-7.2,7.2L-25.9,130.1z"/>
	<path fill="#FFD607" d="M-27.1,111l2.6,2.2l-0.7-4.2c-0.6-4.2-1.3-8.2-2.3-12l-6.8,6.8L-27.1,111z"/>
	<path fill="#FFD607" d="M-94.8,81.9"/>
</g>
<g>
	<path fill="#006A0C" d="M-66.5,52.9c0,0-19.6-2.2-22.4,4c0,0-0.4-8.9,10.8-10.4C-78.1,46.4-66.6,45.6-66.5,52.9z"/>
	<path fill="#006A0C" d="M-66.5,48.5c0,0-25.7-15.6-29.6,0c0,0-5.8-12,10.7-18C-85.4,30.6-63.5,26.1-66.5,48.5z"/>
	<path fill="#006A0C" d="M-66.8,34.6c0,0-23.9-19.9-28.1-17C-99.2,20.6-70.3-6.2-66.8,29V34.6z"/>
	<path fill="#006A0C" d="M-64.5,52.9c0,0,19.6-2.2,22.4,4c0,0,0.4-8.9-10.8-10.4C-52.9,46.4-64.4,45.6-64.5,52.9z"/>
	<path fill="#006A0C" d="M-64.5,48.5c0,0,25.7-15.6,29.6,0c0,0,5.8-12-10.7-18C-45.6,30.6-67.5,26.1-64.5,48.5z"/>
	<path fill="#006A0C" d="M-64.2,34.6c0,0,23.9-19.9,28.1-17S-60.7-6.2-64.2,29V34.6z"/>
	<path fill="#006A0C" d="M-58.4-1.2c0,0-1.7-9.4-7.2-10.4c-5.5,1-7.2,10.4-7.2,10.4c-2.1,7.9,6.6,21.6,6.6,21.6l0.6,1.3l0.6-1.3
		C-65.1,20.4-56.3,6.7-58.4-1.2z"/>
</g>
<g>
	<path d="M178.6,111.9l-0.5-0.5c0.1,0.2,0.1,0.5,0.2,0.7L178.6,111.9z"/>
	<path d="M102.2,152.6c0.6,4.6,1.6,8.6,2.9,12.2l4.6-4.6L102.2,152.6z"/>
	<rect x="105.4" y="144" transform="matrix(0.7071 0.7071 -0.7071 0.7071 138.6271 -34.8814)" width="12.1" height="11.8"/>
	<path d="M138.5,72.9H133c-2,0-4.4,1-6.8,2.8l4.7,4.7L138.5,72.9z"/>
	<path d="M178.4,112.2c-0.1-0.3-0.1-0.5-0.2-0.7l-8.1-8.1l-8.1,8.1l8.6,8.6L178.4,112.2z"/>
	<rect x="124.5" y="124.7" transform="matrix(0.7071 0.7071 -0.7071 0.7071 130.7104 -53.9941)" width="12.1" height="12.1"/>
	<rect x="134.8" y="114.4" transform="matrix(0.7071 0.7071 -0.7071 0.7071 126.4288 -64.3306)" width="12.1" height="12.1"/>
	<rect x="114.9" y="135.4" transform="matrix(0.7071 0.7071 -0.7071 0.7071 134.6904 -44.3855)" width="12.1" height="10.1"/>
	<path d="M129.2,82.3l-4.9-4.9c-2.2,2-4.4,4.6-6.6,7.8l4.3,4.3L129.2,82.3z"/>
	<rect x="125.2" y="145.7" transform="matrix(0.7071 0.7071 -0.7071 0.7071 145.027 -48.6671)" width="12.1" height="10.1"/>
	<rect x="134.8" y="135.1" transform="matrix(0.7071 0.7071 -0.7071 0.7071 141.047 -58.2756)" width="12.1" height="12.1"/>
	<rect x="115.7" y="154.3" transform="matrix(0.7071 0.7071 -0.7071 0.7071 148.9637 -39.1629)" width="12.1" height="11.8"/>
	<rect x="145.1" y="124.7" transform="matrix(0.7071 0.7071 -0.7071 0.7071 136.7655 -68.6122)" width="12.1" height="12.1"/>
	<path d="M156.5,74.7c-1.9-1.2-3.7-1.8-5.3-1.8h-8l7.6,7.6L156.5,74.7z"/>
	<rect x="154.8" y="116" transform="matrix(0.7071 0.7071 -0.7071 0.7071 132.765 -78.2701)" width="12.1" height="10.2"/>
	<path d="M159.7,89.5l5.8-5.8c-2.3-3.2-4.6-5.7-6.9-7.5l-6.1,6.1L159.7,89.5z"/>
	<path d="M170.1,99.8l2.9-2.9c-1.9-4.2-3.9-7.9-6-11.1l-5.4,5.4L170.1,99.8z"/>
	<rect x="106.2" y="125.7" transform="matrix(0.7071 0.7071 -0.7071 0.7071 125.0325 -40.3851)" width="10.2" height="10.1"/>
	<path d="M111.2,120l8.6-8.6l-8.1-8.1l-4.5,4.5c-0.6,2-1.2,4.1-1.8,6.3L111.2,120z"/>
	<rect x="115.8" y="115.1" transform="matrix(0.7071 0.7071 -0.7071 0.7071 121.0525 -49.9936)" width="10.2" height="12.1"/>
	<rect x="126.1" y="104.7" transform="matrix(0.7071 0.7071 -0.7071 0.7071 116.7709 -60.3302)" width="10.2" height="12.1"/>
	<rect x="135.8" y="96" transform="matrix(0.7071 0.7071 -0.7071 0.7071 112.7705 -69.9881)" width="10.2" height="10.2"/>
	<path d="M161.6,170.5l8.5,8.5c2.6-2.7,5.1-6,7.1-10l-7.1-7.1L161.6,170.5z"/>
	<rect x="153.9" y="95.6" transform="matrix(0.7071 0.7071 -0.7071 0.7071 118.5229 -83.4172)" width="12.1" height="11.5"/>
	<rect x="135.1" y="76.5" transform="matrix(0.7071 0.7071 -0.7071 0.7071 99.4364 -75.5113)" width="11.5" height="11.5"/>
	<rect x="144.5" y="105.7" transform="matrix(0.7071 0.7071 -0.7071 0.7071 122.4284 -73.9885)" width="12.1" height="10.2"/>
	<path d="M120.2,91.3l-3.9-3.9c-2,3.3-4,7.1-5.8,11.3l1.1,1.1L120.2,91.3z"/>
	<path d="M101.8,147.4l7.8-7.8l-7.2-7.2l-0.1,0.1c-0.4,3.8-0.5,7.8-0.5,11.8C101.7,145.4,101.7,146.4,101.8,147.4z"/>
	<rect x="125.7" y="86.6" transform="matrix(0.7071 0.7071 -0.7071 0.7071 103.3419 -66.0826)" width="11.5" height="10.2"/>
	<path d="M102.7,128.5l6.7-6.7l-4.7-4.7C103.9,120.7,103.2,124.6,102.7,128.5z"/>
	<path d="M130.7,181.1l-5.9,5.9c6.4,3.3,11.6,4.1,11.6,4.1h1l1.7-1.7L130.7,181.1z"/>
	<rect x="116" y="95.3" transform="matrix(0.7071 0.7071 -0.7071 0.7071 107.3423 -56.4247)" width="11.5" height="12.1"/>
	<rect x="135.8" y="155.3" transform="matrix(0.7071 0.7071 -0.7071 0.7071 154.6355 -52.6471)" width="10.1" height="10.1"/>
	<polygon points="182.3,149.8 182.3,149.8 182.3,149.8 	"/>
	<path d="M142.6,189.5l1.7,1.7h3.6c0,0,4.3-0.6,9.9-3.3l-6.8-6.8L142.6,189.5z"/>
	<path d="M121.9,172.2l-7.3,7.3c2.6,2.6,5.3,4.6,8,6.2l6.4-6.4L121.9,172.2z"/>
	<rect x="126.3" y="163.9" transform="matrix(0.7071 0.7071 -0.7071 0.7071 158.5723 -43.1429)" width="10.1" height="11.8"/>
	<rect x="154.1" y="154.2" transform="matrix(0.7071 0.7071 -0.7071 0.7071 160.1597 -66.1924)" width="11.8" height="12.1"/>
	<rect x="144.5" y="164.8" transform="matrix(0.7071 0.7071 -0.7071 0.7071 164.1396 -56.5838)" width="11.8" height="10.1"/>
	<rect x="164.4" y="143.8" transform="matrix(0.7071 0.7071 -0.7071 0.7071 155.8781 -76.5289)" width="11.8" height="12.1"/>
	<path d="M172,160.1l6.4,6.4c1.7-3.9,2.9-8.4,3.6-13.5l-1.4-1.4L172,160.1z"/>
	<rect x="135" y="173.4" transform="matrix(0.7071 0.7071 -0.7071 0.7071 168.0764 -47.0797)" width="11.8" height="11.8"/>
	<rect x="145.2" y="86" transform="matrix(0.7071 0.7071 -0.7071 0.7071 108.865 -79.4168)" width="10.2" height="11.5"/>
	<rect x="165.4" y="125.6" transform="matrix(0.7071 0.7071 -0.7071 0.7071 142.3736 -82.2501)" width="10.1" height="10.2"/>
	<path d="M176.6,106.4c-0.8-2.4-1.7-4.8-2.6-7l-2.2,2.2L176.6,106.4z"/>
	<rect x="155.8" y="134.3" transform="matrix(0.7071 0.7071 -0.7071 0.7071 146.374 -72.5922)" width="10.1" height="12.1"/>
	<path d="M111.5,161.9l-5.4,5.4c1.9,4.1,4.2,7.6,6.7,10.4l7.2-7.2L111.5,161.9z"/>
	<rect x="145.5" y="144.7" transform="matrix(0.7071 0.7071 -0.7071 0.7071 150.6556 -62.2556)" width="10.1" height="12.1"/>
	<path d="M152.8,179.3l7.3,7.3c2.7-1.5,5.5-3.4,8.3-5.9l-8.5-8.5L152.8,179.3z"/>
	<path d="M180.5,148l1.8,1.8l0.2-3.7c0-0.6,0-1.1,0-1.7c0-3.1-0.1-6.1-0.3-9.1l-2.8-2.8l-7.2,7.2L180.5,148z"/>
	<path d="M179.4,128.9l2.6,2.2l-0.7-4.2c-0.6-4.2-1.3-8.2-2.3-12l-6.8,6.8L179.4,128.9z"/>
	<path d="M111.7,99.8"/>
</g>
<g>
	<path d="M140,70.8c0,0-19.6-2.2-22.4,4c0,0-0.4-8.9,10.8-10.4C128.4,64.4,139.9,63.6,140,70.8z"/>
	<path d="M140,66.5c0,0-25.7-15.6-29.6,0c0,0-5.8-12,10.7-18C121.1,48.5,143,44.1,140,66.5z"/>
	<path d="M139.7,52.6c0,0-23.9-19.9-28.1-17s24.7-23.8,28.1,11.4V52.6z"/>
	<path d="M142,70.8c0,0,19.6-2.2,22.4,4c0,0,0.4-8.9-10.8-10.4C153.6,64.4,142.1,63.6,142,70.8z"/>
	<path d="M142,66.5c0,0,25.7-15.6,29.6,0c0,0,5.8-12-10.7-18C160.9,48.5,139,44.1,142,66.5z"/>
	<path d="M142.3,52.6c0,0,23.9-19.9,28.1-17c4.3,2.9-24.7-23.8-28.1,11.4V52.6z"/>
	<path d="M148.1,16.7c0,0-1.7-9.4-7.2-10.4c-5.5,1-7.2,10.4-7.2,10.4c-2.1,7.9,6.6,21.6,6.6,21.6l0.6,1.3l0.6-1.3
		C141.4,38.4,150.2,24.7,148.1,16.7z"/>
</g>
<g>
	<path fill="#FFFFFF" d="M278.9,107.1l-0.5-0.5c0.1,0.2,0.1,0.5,0.2,0.7L278.9,107.1z"/>
	<path fill="#FFFFFF" d="M202.5,147.8c0.6,4.6,1.6,8.6,2.9,12.2l4.6-4.6L202.5,147.8z"/>
	
		<rect x="205.7" y="139.2" transform="matrix(0.7071 0.7071 -0.7071 0.7071 164.6097 -107.2059)" fill="#FFFFFF" width="12.1" height="11.8"/>
	<path fill="#FFFFFF" d="M238.8,68.1h-5.5c-2,0-4.4,1-6.8,2.8l4.7,4.7L238.8,68.1z"/>
	<path fill="#FFFFFF" d="M278.7,107.4c-0.1-0.3-0.1-0.5-0.2-0.7l-8.1-8.1l-8.1,8.1l8.6,8.6L278.7,107.4z"/>
	
		<rect x="224.8" y="119.9" transform="matrix(0.7071 0.7071 -0.7071 0.7071 156.693 -126.3186)" fill="#FFFFFF" width="12.1" height="12.1"/>
	
		<rect x="235.1" y="109.6" transform="matrix(0.7071 0.7071 -0.7071 0.7071 152.4115 -136.6552)" fill="#FFFFFF" width="12.1" height="12.1"/>
	
		<rect x="215.2" y="130.6" transform="matrix(0.7071 0.7071 -0.7071 0.7071 160.673 -116.7101)" fill="#FFFFFF" width="12.1" height="10.1"/>
	<path fill="#FFFFFF" d="M229.5,77.5l-4.9-4.9c-2.2,2-4.4,4.6-6.6,7.8l4.3,4.3L229.5,77.5z"/>
	
		<rect x="225.5" y="140.9" transform="matrix(0.7071 0.7071 -0.7071 0.7071 171.0096 -120.9916)" fill="#FFFFFF" width="12.1" height="10.1"/>
	
		<rect x="235.1" y="130.3" transform="matrix(0.7071 0.7071 -0.7071 0.7071 167.0296 -130.6002)" fill="#FFFFFF" width="12.1" height="12.1"/>
	
		<rect x="216" y="149.5" transform="matrix(0.7071 0.7071 -0.7071 0.7071 174.9463 -111.4875)" fill="#FFFFFF" width="12.1" height="11.8"/>
	
		<rect x="245.4" y="119.9" transform="matrix(0.7071 0.7071 -0.7071 0.7071 162.7481 -140.9368)" fill="#FFFFFF" width="12.1" height="12.1"/>
	<path fill="#FFFFFF" d="M256.8,69.9c-1.9-1.2-3.7-1.8-5.3-1.8h-8l7.6,7.6L256.8,69.9z"/>
	
		<rect x="255.1" y="111.2" transform="matrix(0.7071 0.7071 -0.7071 0.7071 158.7477 -150.5947)" fill="#FFFFFF" width="12.1" height="10.2"/>
	<path fill="#FFFFFF" d="M260,84.7l5.8-5.8c-2.3-3.2-4.6-5.7-6.9-7.5l-6.1,6.1L260,84.7z"/>
	<path fill="#FFFFFF" d="M270.4,95l2.9-2.9c-1.9-4.2-3.9-7.9-6-11.1l-5.4,5.4L270.4,95z"/>
	
		<rect x="206.5" y="120.9" transform="matrix(0.7071 0.7071 -0.7071 0.7071 151.0151 -112.7096)" fill="#FFFFFF" width="10.2" height="10.1"/>
	<path fill="#FFFFFF" d="M211.5,115.2l8.6-8.6l-8.1-8.1l-4.5,4.5c-0.6,2-1.2,4.1-1.8,6.3L211.5,115.2z"/>
	
		<rect x="216.1" y="110.3" transform="matrix(0.7071 0.7071 -0.7071 0.7071 147.0351 -122.3182)" fill="#FFFFFF" width="10.2" height="12.1"/>
	
		<rect x="226.4" y="99.9" transform="matrix(0.7071 0.7071 -0.7071 0.7071 142.7536 -132.6548)" fill="#FFFFFF" width="10.2" height="12.1"/>
	
		<rect x="236.1" y="91.2" transform="matrix(0.7071 0.7071 -0.7071 0.7071 138.7531 -142.3127)" fill="#FFFFFF" width="10.2" height="10.2"/>
	<path fill="#FFFFFF" d="M261.9,165.7l8.5,8.5c2.6-2.7,5.1-6,7.1-10l-7.1-7.1L261.9,165.7z"/>
	
		<rect x="254.2" y="90.8" transform="matrix(0.7071 0.7071 -0.7071 0.7071 144.5055 -155.7418)" fill="#FFFFFF" width="12.1" height="11.5"/>
	
		<rect x="235.4" y="71.7" transform="matrix(0.7071 0.7071 -0.7071 0.7071 125.419 -147.8359)" fill="#FFFFFF" width="11.5" height="11.5"/>
	
		<rect x="244.8" y="100.9" transform="matrix(0.7071 0.7071 -0.7071 0.7071 148.411 -146.3131)" fill="#FFFFFF" width="12.1" height="10.2"/>
	<path fill="#FFFFFF" d="M220.5,86.5l-3.9-3.9c-2,3.3-4,7.1-5.8,11.3L212,95L220.5,86.5z"/>
	<path fill="#FFFFFF" d="M202.1,142.6l7.8-7.8l-7.2-7.2l-0.1,0.1c-0.4,3.8-0.5,7.8-0.5,11.8C202,140.6,202,141.6,202.1,142.6z"/>
	
		<rect x="226" y="81.8" transform="matrix(0.7071 0.7071 -0.7071 0.7071 129.3245 -138.4072)" fill="#FFFFFF" width="11.5" height="10.2"/>
	<path fill="#FFFFFF" d="M203,123.7l6.7-6.7l-4.7-4.7C204.2,115.9,203.5,119.8,203,123.7z"/>
	<path fill="#FFFFFF" d="M231,176.3l-5.9,5.9c6.4,3.3,11.6,4.1,11.6,4.1h1l1.7-1.7L231,176.3z"/>
	
		<rect x="216.3" y="90.5" transform="matrix(0.7071 0.7071 -0.7071 0.7071 133.3249 -128.7493)" fill="#FFFFFF" width="11.5" height="12.1"/>
	
		<rect x="236.1" y="150.5" transform="matrix(0.7071 0.7071 -0.7071 0.7071 180.6181 -124.9716)" fill="#FFFFFF" width="10.1" height="10.1"/>
	<polygon fill="#FFFFFF" points="282.6,145 282.6,145 282.6,145 	"/>
	<path fill="#FFFFFF" d="M242.9,184.7l1.7,1.7h3.6c0,0,4.3-0.6,9.9-3.3l-6.8-6.8L242.9,184.7z"/>
	<path fill="#FFFFFF" d="M222.2,167.4l-7.3,7.3c2.6,2.6,5.3,4.6,8,6.2l6.4-6.4L222.2,167.4z"/>
	
		<rect x="226.6" y="159.1" transform="matrix(0.7071 0.7071 -0.7071 0.7071 184.5549 -115.4675)" fill="#FFFFFF" width="10.1" height="11.8"/>
	
		<rect x="254.4" y="149.4" transform="matrix(0.7071 0.7071 -0.7071 0.7071 186.1423 -138.5169)" fill="#FFFFFF" width="11.8" height="12.1"/>
	
		<rect x="244.8" y="160" transform="matrix(0.7071 0.7071 -0.7071 0.7071 190.1223 -128.9084)" fill="#FFFFFF" width="11.8" height="10.1"/>
	
		<rect x="264.7" y="139" transform="matrix(0.7071 0.7071 -0.7071 0.7071 181.8607 -148.8535)" fill="#FFFFFF" width="11.8" height="12.1"/>
	<path fill="#FFFFFF" d="M272.3,155.3l6.4,6.4c1.7-3.9,2.9-8.4,3.6-13.5l-1.4-1.4L272.3,155.3z"/>
	
		<rect x="235.3" y="168.6" transform="matrix(0.7071 0.7071 -0.7071 0.7071 194.059 -119.4042)" fill="#FFFFFF" width="11.8" height="11.8"/>
	
		<rect x="245.5" y="81.2" transform="matrix(0.7071 0.7071 -0.7071 0.7071 134.8476 -151.7413)" fill="#FFFFFF" width="10.2" height="11.5"/>
	
		<rect x="265.7" y="120.8" transform="matrix(0.7071 0.7071 -0.7071 0.7071 168.3562 -154.5747)" fill="#FFFFFF" width="10.1" height="10.2"/>
	<path fill="#FFFFFF" d="M276.9,101.6c-0.8-2.4-1.7-4.8-2.6-7l-2.2,2.2L276.9,101.6z"/>
	
		<rect x="256.1" y="129.5" transform="matrix(0.7071 0.7071 -0.7071 0.7071 172.3566 -144.9168)" fill="#FFFFFF" width="10.1" height="12.1"/>
	<path fill="#FFFFFF" d="M211.8,157.1l-5.4,5.4c1.9,4.1,4.2,7.6,6.7,10.4l7.2-7.2L211.8,157.1z"/>
	
		<rect x="245.7" y="139.9" transform="matrix(0.7071 0.7071 -0.7071 0.7071 176.6382 -134.5802)" fill="#FFFFFF" width="10.1" height="12.1"/>
	<path fill="#FFFFFF" d="M253.1,174.5l7.3,7.3c2.7-1.5,5.5-3.4,8.3-5.9l-8.5-8.5L253.1,174.5z"/>
	<path fill="#FFFFFF" d="M280.8,143.2l1.8,1.8l0.2-3.7c0-0.6,0-1.1,0-1.7c0-3.1-0.1-6.1-0.3-9.1l-2.8-2.8l-7.2,7.2L280.8,143.2z"/>
	<path fill="#FFFFFF" d="M279.7,124.1l2.6,2.2l-0.7-4.2c-0.6-4.2-1.3-8.2-2.3-12l-6.8,6.8L279.7,124.1z"/>
	<path fill="#FFFFFF" d="M212,95"/>
</g>
<g>
	<path fill="#FFFFFF" d="M240.3,66c0,0-19.6-2.2-22.4,4c0,0-0.4-8.9,10.8-10.4C228.7,59.6,240.2,58.8,240.3,66z"/>
	<path fill="#FFFFFF" d="M240.3,61.7c0,0-25.7-15.6-29.6,0c0,0-5.8-12,10.7-18C221.4,43.7,243.2,39.3,240.3,61.7z"/>
	<path fill="#FFFFFF" d="M240,47.8c0,0-23.9-19.9-28.1-17C207.6,33.7,236.5,7,240,42.2V47.8z"/>
	<path fill="#FFFFFF" d="M242.2,66c0,0,19.6-2.2,22.4,4c0,0,0.4-8.9-10.8-10.4C253.9,59.6,242.4,58.8,242.2,66z"/>
	<path fill="#FFFFFF" d="M242.2,61.7c0,0,25.7-15.6,29.6,0c0,0,5.8-12-10.7-18C261.1,43.7,239.3,39.3,242.2,61.7z"/>
	<path fill="#FFFFFF" d="M242.6,47.8c0,0,23.9-19.9,28.1-17c4.3,2.9-24.7-23.8-28.1,11.4V47.8z"/>
	<path fill="#FFFFFF" d="M248.4,11.9c0,0-1.7-9.4-7.2-10.4c-5.5,1-7.2,10.4-7.2,10.4c-2.1,7.9,6.6,21.6,6.6,21.6l0.6,1.3l0.6-1.3
		C241.7,33.6,250.5,19.9,248.4,11.9z"/>
</g>
</svg>
